<svg id="_1" data-name="1" xmlns="http://www.w3.org/2000/svg" width="500" height="500" viewBox="0 0 500 500">
  <defs>
    <style>
      .cls-1 {
        fill-rule: evenodd;
      }
    </style>
  </defs>
  <path id="_1-2" data-name="1" class="cls-1" d="M298.123,175s19.78-19.156,43.628-34.221c19.247-12.158,41.7-18.991,41.7-18.991V355.379H353.123V169.906a149.206,149.206,0,0,0-17.057,10.756c-10.154,7.46-20.849,17.092-20.849,17.092Z"/>
  <path id="E_-_Arc" data-name="E - Arc" class="cls-1" d="M281.856,331.246s-32.346,35.344-85.465,35.262c-67.035,0-121.378-54.452-121.378-121.621s54.343-121.621,121.378-121.621c33.319,0,61.6,11.552,83.539,33.331l-19.814,23.151s-23.949-26.067-63.725-26.077a91.216,91.216,0,1,0,63.928,156.155Z"/>
  <path id="E_-_Middle_Line" data-name="E - Middle Line" class="cls-1" d="M86.393,227.784H241.907v30.405H86.393V227.784Z"/>
  <path id="Circle" class="cls-1" d="M250,0C387.519,0,499,111.705,499,249.5S387.519,499,250,499,1,387.3,1,249.5,112.481,0,250,0Zm0,20c127.025,0,230,102.751,230,229.5S377.025,479,250,479,20,376.249,20,249.5,122.975,20,250,20Z"/>
</svg>
